<svg id="Layer_1" data-name="Layer 1" xmlns="http://www.w3.org/2000/svg" viewBox="0 0 413.51 133.52"><defs><style>.cls-1{fill:#911a25;}.cls-2{fill:#054f87;}.cls-3{fill:#24385a;}</style></defs><path class="cls-1" d="M204.16,65.79a3.74,3.74,0,0,1-3.74-3.74V16.62a3.74,3.74,0,0,1,7.48,0V62.05a3.73,3.73,0,0,1-3.74,3.74"/><path class="cls-1" d="M162,65.84c-13.83,0-25.07-11.6-25.07-25.85S148.18,14.14,162,14.14c13,0,23.93,10.42,25,23.73a3.74,3.74,0,0,1-7.46.59C178.79,29,171.09,21.62,162,21.62c-9.7,0-17.59,8.24-17.59,18.37S152.31,58.36,162,58.36c8.79,0,14.13-2.75,15.89-8.18a3.74,3.74,0,0,1,7.12,2.3c-2.79,8.62-11,13.36-23,13.36"/><path class="cls-1" d="M204.24,66a3.74,3.74,0,0,1-3.74-3.74V30.4c0-5.21,2.57-9.95,7.23-13.34a25.89,25.89,0,0,1,14.9-4.63,23.53,23.53,0,0,1,16.5,6.37c4.94,4.77,7.55,11.84,7.55,20.43V62a3.74,3.74,0,0,1-7.48,0V39.23c0-6.61-1.78-11.67-5.27-15a16.07,16.07,0,0,0-11.3-4.28c-9,0-14.64,5.45-14.64,10.49V62.22A3.74,3.74,0,0,1,204.24,66"/><path class="cls-1" d="M182.41,43H153a3.75,3.75,0,1,1,0-7.49h29.39a3.75,3.75,0,0,1,0,7.49"/><path class="cls-1" d="M39.23,66A26.46,26.46,0,0,1,12.57,39.78v-.54a3.74,3.74,0,1,1,7.48.17v.37a19,19,0,0,0,19.18,18.7,19,19,0,0,0,19.18-18.7c0-10.17-8.48-18.55-18.92-18.69a3.74,3.74,0,0,1,0-7.48h.05C54.1,13.8,65.9,25.54,65.9,39.78,65.9,54.22,53.93,66,39.23,66"/><path class="cls-2" d="M3.74,29.46H3.66A3.74,3.74,0,0,1,0,25.64,25.79,25.79,0,0,1,8,7.47,26.74,26.74,0,0,1,26.65,0H27a3.76,3.76,0,0,1,3.72,3.78A3.72,3.72,0,0,1,27,7.49h-.33C16.29,7.48,7.69,15.7,7.48,25.8a3.74,3.74,0,0,1-3.74,3.66"/><polygon class="cls-3" points="264.23 38.52 269.46 38.52 269.46 39.95 265.89 39.95 265.89 42.53 268.9 42.53 268.9 43.95 265.89 43.95 265.89 47.63 264.23 47.63 264.23 38.52"/><path class="cls-3" d="M276.38,46.27a3.08,3.08,0,0,0,3-3.26,3,3,0,1,0-6,0,3.08,3.08,0,0,0,3,3.26m0-7.9A4.6,4.6,0,0,1,281.09,43a4.71,4.71,0,1,1-9.42,0,4.6,4.6,0,0,1,4.71-4.64"/><polygon class="cls-3" points="284.05 38.52 285.7 38.52 285.7 46.21 289.64 46.21 289.64 47.63 284.05 47.63 284.05 38.52"/><polygon class="cls-3" points="292.25 38.52 293.9 38.52 293.9 46.21 297.84 46.21 297.84 47.63 292.25 47.63 292.25 38.52"/><path class="cls-3" d="M304.52,46.27a3.08,3.08,0,0,0,3-3.26,3,3,0,1,0-6,0,3.08,3.08,0,0,0,3,3.26m0-7.9A4.6,4.6,0,0,1,309.23,43a4.71,4.71,0,1,1-9.42,0,4.6,4.6,0,0,1,4.71-4.64"/><path class="cls-3" d="M319.55,44.82a7.35,7.35,0,0,1,.17,1h0a6.84,6.84,0,0,1,.15-1l1.5-6.3h1.71l-2.35,9.11h-1.91l-1.4-5.39a11.91,11.91,0,0,1-.23-1.19h0a9.32,9.32,0,0,1-.23,1.19l-1.4,5.39h-1.91l-2.28-9.11h1.71l1.43,6.3a8,8,0,0,1,.16,1h0s0-.43.17-1l1.64-6.3h1.44Z"/><rect class="cls-3" x="325.86" y="38.52" width="1.65" height="9.11"/><path class="cls-3" d="M331.11,38.52h1.65l3.45,5.26a13.79,13.79,0,0,1,.76,1.41h0s-.09-.87-.09-1.41V38.52h1.64v9.11h-1.64l-3.45-5.24A13.79,13.79,0,0,1,332.7,41h0s.09.87.09,1.41v5.24h-1.65Z"/><path class="cls-3" d="M346.22,38.37a5,5,0,0,1,3.39,1.15l-.82,1.24a3.93,3.93,0,0,0-2.43-.88A3,3,0,0,0,343.23,43a3,3,0,0,0,3,3.26,3.43,3.43,0,0,0,2.29-1V44.26h-1.4V42.84h2.89v4.79h-1.41V47.2c0-.2,0-.39,0-.39h0a3.85,3.85,0,0,1-2.64,1,4.49,4.49,0,0,1-4.47-4.73,4.59,4.59,0,0,1,4.7-4.69"/><polygon class="cls-3" points="359.46 39.95 356.47 39.95 356.47 38.52 364.1 38.52 364.1 39.95 361.11 39.95 361.11 47.63 359.46 47.63 359.46 39.95"/><polygon class="cls-3" points="366.59 38.52 368.24 38.52 368.24 42.38 372.41 42.38 372.41 38.52 374.07 38.52 374.07 47.63 372.41 47.63 372.41 43.81 368.24 43.81 368.24 47.63 366.59 47.63 366.59 38.52"/><polygon class="cls-3" points="377.66 38.52 383.11 38.52 383.11 39.95 379.31 39.95 379.31 42.33 382.38 42.33 382.38 43.76 379.31 43.76 379.31 46.21 383.32 46.21 383.32 47.63 377.66 47.63 377.66 38.52"/><path class="cls-3" d="M264.69,53.92h1.77l1.79,4.5c.2.54.46,1.33.46,1.33h0s.25-.79.45-1.33l1.79-4.5h1.77l.73,9.1h-1.64l-.39-5.09c0-.6,0-1.41,0-1.41h0s-.27.89-.49,1.41l-1.47,3.53H268l-1.46-3.53c-.22-.52-.5-1.42-.5-1.42h0s0,.82,0,1.42L265.61,63H264Z"/><path class="cls-3" d="M280.86,61.66a3.08,3.08,0,0,0,3-3.25,3,3,0,1,0-6,0,3.09,3.09,0,0,0,3,3.25m0-7.9a4.6,4.6,0,0,1,4.7,4.65,4.71,4.71,0,1,1-9.41,0,4.6,4.6,0,0,1,4.71-4.65"/><path class="cls-3" d="M288.53,53.92h1.65l3.45,5.26a12.76,12.76,0,0,1,.76,1.41h0s-.09-.87-.09-1.41V53.92H296V63h-1.64l-3.45-5.24a15.15,15.15,0,0,1-.75-1.41h0s.09.87.09,1.41V63h-1.65Z"/><polygon class="cls-3" points="299.56 53.92 305.01 53.92 305.01 55.34 301.21 55.34 301.21 57.73 304.28 57.73 304.28 59.15 301.21 59.15 301.21 61.6 305.21 61.6 305.21 63.02 299.56 63.02 299.56 53.92"/><path class="cls-3" d="M310.11,59.21l-3-5.29H309l1.42,2.68c.3.56.54,1.23.55,1.22h0s.26-.66.55-1.22l1.41-2.68h1.87l-3,5.29V63h-1.66Z"/><rect class="cls-3" x="321.66" y="53.92" width="1.65" height="9.11"/><path class="cls-3" d="M326.9,53.92h1.66L332,59.18a12,12,0,0,1,.75,1.41h0s-.09-.87-.09-1.41V53.92h1.64V63H332.7l-3.45-5.24a13.79,13.79,0,0,1-.76-1.41h0s.09.87.09,1.41V63H326.9Z"/><path class="cls-3" d="M345.54,58.44a1.43,1.43,0,0,0,1.53-1.56,1.41,1.41,0,0,0-1.5-1.54H344v3.1Zm-3.21-4.52h3.52a2.79,2.79,0,0,1,2.9,3,2.83,2.83,0,0,1-2.9,3H344V63h-1.66Z"/><path class="cls-3" d="M355.57,61.66a3.08,3.08,0,0,0,3-3.25,3,3,0,1,0-6,0,3.08,3.08,0,0,0,3,3.25m0-7.9a4.61,4.61,0,0,1,4.71,4.65,4.71,4.71,0,1,1-9.42,0,4.61,4.61,0,0,1,4.71-4.65"/><polygon class="cls-3" points="363.24 53.92 364.89 53.92 364.89 61.6 368.83 61.6 368.83 63.02 363.24 63.02 363.24 53.92"/><rect class="cls-3" x="371.44" y="53.92" width="1.65" height="9.11"/><polygon class="cls-3" points="378.57 55.34 375.58 55.34 375.58 53.92 383.21 53.92 383.21 55.34 380.22 55.34 380.22 63.02 378.57 63.02 378.57 55.34"/><rect class="cls-3" x="385.7" y="53.92" width="1.65" height="9.11"/><path class="cls-3" d="M395,53.76A4.7,4.7,0,0,1,398.36,55l-.79,1.23a4,4,0,0,0-2.49-1A3,3,0,0,0,392,58.41a3.07,3.07,0,0,0,3.07,3.25,3.91,3.91,0,0,0,2.64-1.15l.87,1.19A4.87,4.87,0,0,1,395,63.18a4.71,4.71,0,0,1,0-9.42"/><path class="cls-3" d="M401.62,60.69a3.66,3.66,0,0,0,2.27,1c.69,0,1.32-.36,1.32-1.1,0-1.63-4.3-1.35-4.3-4.15A2.8,2.8,0,0,1,404,53.76a3.88,3.88,0,0,1,2.72,1L406,56.08a3.37,3.37,0,0,0-2-.79c-.77,0-1.37.45-1.37,1.09,0,1.61,4.28,1.22,4.28,4.13a2.72,2.72,0,0,1-3,2.67,4.41,4.41,0,0,1-3.14-1.25Z"/><path class="cls-2" d="M132.13,91.83c-2.41-3.76-5.29-5.61-10.91-5.61-5,0-7.77,2.33-7.77,6.09,0,4.33,3.52,6.26,10.9,8.1,11.54,2.89,16.75,7.22,16.75,17,0,9-6.09,16.11-19.08,16.11-9.69,0-16.43-2.65-21.32-9.06l8.58-5.93c3,3.69,6.33,5.53,12,5.53,6.42,0,8.58-2.81,8.58-6.17,0-3.85-2.32-6-11.3-8.34-10.91-2.89-16.36-8.1-16.36-17.24,0-8.73,5.78-15.55,18.92-15.55,8.82,0,15.47,3,19.4,9.06Z"/><polygon class="cls-2" points="183.31 83.68 183.31 93.5 164.09 93.5 164.09 102.47 181.17 102.47 181.17 112.3 164.09 112.3 164.09 122.97 183.31 122.97 183.31 132.8 152.27 132.8 152.27 83.68 183.31 83.68"/><path class="cls-2" d="M220.89,98.84c-.5-3.13-2.63-6-6.83-6-4.91,0-7.55,3.56-7.55,11.6v7.69c0,7.69,2.57,11.61,7.55,11.61,4.2,0,6.12-2.14,6.83-6.06h11.25c-1.71,11-7.69,15.88-18.08,15.88-11.18,0-19.36-6.76-19.36-21.43v-7.69c0-14.8,8.18-21.42,19.36-21.42,9.75,0,16.44,5.19,18.08,15.87Z"/><path class="cls-2" d="M260.61,104.39c4.77,0,8.19-.64,8.19-5.26s-3.42-5.63-8.19-5.63h-5.27v10.89Zm9,28.41-8.18-18.58h-6.13V132.8H243.53V83.68H262c11.32,0,18.58,5.2,18.58,15.45,0,6.4-2.84,10.75-7.83,13l9.83,20.65Z"/><polygon class="cls-2" points="325.39 83.68 325.39 93.5 306.17 93.5 306.17 102.47 323.25 102.47 323.25 112.3 306.17 112.3 306.17 122.97 325.39 122.97 325.39 132.8 294.35 132.8 294.35 83.68 325.39 83.68"/><polygon class="cls-2" points="371.73 83.68 371.73 93.5 358.92 93.5 358.92 132.8 347.1 132.8 347.1 93.5 334.28 93.5 334.28 83.68 371.73 83.68"/><path class="cls-2" d="M404.4,97.28c-1.92-3.28-4.34-4.49-8.76-4.49-3.91,0-5.62,1.78-5.62,4.27,0,2.92,2.56,4.56,8.76,6.34,10.67,3.06,14.73,7,14.73,15.44,0,8.9-6,14.67-17.15,14.67-9,0-15-2.21-19.65-8l8.82-6.19c2.43,3.06,5.42,4.41,9.83,4.41s6.34-1.92,6.34-4.27c0-2.84-2-4.27-9.26-6.62-10-3.2-14.24-7.76-14.24-15.66C378.2,89,383.54,83,395.5,83c7.83,0,14.17,2.63,17.66,8Z"/><path class="cls-1" d="M102.24,21.09a18.7,18.7,0,1,0,18.69,18.7,18.72,18.72,0,0,0-18.69-18.7m0,44.88a26.18,26.18,0,1,1,26.18-26.18A26.21,26.21,0,0,1,102.24,66"/><path class="cls-1" d="M79.8,95.71A3.73,3.73,0,0,1,76.06,92V18.35a3.74,3.74,0,0,1,7.48,0V92a3.73,3.73,0,0,1-3.74,3.74"/></svg>